# xmcd
#
# Track frame offsets: 
#        193
#        16620
#        31663
#        48533
#        61775
#        74765
#        88105
#        97548
#        110985
#        119775
#        137135
#        147328
#        159603
#        179408
#        190975
#        204933
#        217625
#
# Disc length: 3069 seconds
#
# Revision: 7
# Processed by: cddbd v1.5.2PL0 Copyright (c) Steve Scherf et al.
# Submitted via: ExactAudioCopy v0.95b2
#
DISCID=f00bfb11
DTITLE=Howlin' Wolf - London Sessions
DYEAR=1990
DGENRE=Blues
TTITLE0=Rockin' Daddy
TTITLE1=I Ain't Superstitious
TTITLE2=Sittin' On Top Of The World
TTITLE3=Worried About My Baby
TTITLE4=What A Woman
TTITLE5=Poor Boy
TTITLE6=Built For Comfort
TTITLE7=Who's Been Talking
TTITLE8=Little Red Rooster (Rehearsal)
TTITLE9=Little Red Rooster
TTITLE10=Do The Do
TTITLE11=Highway 49
TTITLE12=Wang-Dang-Doodle
TTITLE13=Howlin' For My Baby
TTITLE14=Smokestack Lightnin'
TTITLE15=Back Door Man
TTITLE16=Killing Floor
EXTD=YEAR: 1990
EXTT0=
EXTT1=
EXTT2=
EXTT3=
EXTT4=
EXTT5=
EXTT6=
EXTT7=
EXTT8=
EXTT9=
EXTT10=
EXTT11=
EXTT12=
EXTT13=
EXTT14=
EXTT15=
EXTT16=
PLAYORDER=
